<svg width="40" height="40" viewBox="0 0 40 40" fill="none" xmlns="http://www.w3.org/2000/svg">
<path fill-rule="evenodd" clip-rule="evenodd" d="M8.21424 31.7831C13.3078 36.8772 20.8502 37.9778 27.0225 35.1233C27.9337 34.7565 28.6807 34.46 29.3909 34.46C31.369 34.4717 33.8312 36.3898 35.1109 35.1116C36.3906 33.8318 34.4711 31.3676 34.4711 29.3776C34.4711 28.6673 34.7558 27.9336 35.1226 27.0206C37.9785 20.8494 36.8763 13.3045 31.7827 8.21199C25.2805 1.70737 14.7165 1.70737 8.21424 8.21032C1.70028 14.725 1.71201 25.2801 8.21424 31.7831Z" stroke="white" stroke-width="3" stroke-linecap="round" stroke-linejoin="round"/>
<path d="M13.4339 20.6883H13.4189" stroke="white" stroke-width="3" stroke-linecap="round" stroke-linejoin="round"/>
<path d="M20.1161 20.6883H20.1011" stroke="white" stroke-width="3" stroke-linecap="round" stroke-linejoin="round"/>
<path d="M26.7977 20.6883H26.7827" stroke="white" stroke-width="3" stroke-linecap="round" stroke-linejoin="round"/>
</svg>
