<svg width="48" height="48" viewBox="0 0 48 48" fill="none" xmlns="http://www.w3.org/2000/svg">
<g clip-path="url(#clip0_461_3561)">
<path fill-rule="evenodd" clip-rule="evenodd" d="M32.8368 12.94H33.2464C38.6304 12.94 43 17.44 43 22.96V34C43 39.52 38.6304 44 33.2464 44H14.7536C9.36961 44 5 39.52 5 34V22.96C5 17.44 9.36961 12.94 14.7536 12.94H15.1632C15.2023 10.54 16.1191 8.3 17.7772 6.62C19.4548 4.92 21.6006 4.06 24.0195 4C28.8573 4 32.7782 8 32.8368 12.94ZM19.8255 8.76C18.7331 9.88 18.1283 11.36 18.0893 12.94H29.9107C29.8522 9.66 27.2382 7 24.0195 7C22.5175 7 20.9569 7.62 19.8255 8.76ZM31.4127 20.64C32.232 20.64 32.8758 19.96 32.8758 19.14V16.82C32.8758 16 32.232 15.32 31.4127 15.32C30.6129 15.32 29.9497 16 29.9497 16.82V19.14C29.9497 19.96 30.6129 20.64 31.4127 20.64ZM17.8747 19.14C17.8747 19.96 17.231 20.64 16.4117 20.64C15.6119 20.64 14.9487 19.96 14.9487 19.14V16.82C14.9487 16 15.6119 15.32 16.4117 15.32C17.231 15.32 17.8747 16 17.8747 16.82V19.14Z" fill="white"/>
</g>
<defs>
<clipPath id="clip0_461_3561">
<rect width="48" height="48" fill="white"/>
</clipPath>
</defs>
</svg>
