<svg width="48" height="48" viewBox="0 0 48 48" fill="none" xmlns="http://www.w3.org/2000/svg">
<g clip-path="url(#clip0_461_3565)">
<path d="M35.8368 28.6402C35.3188 29.1422 35.0808 29.8682 35.1988 30.5802L36.9768 40.4202C37.1268 41.2542 36.7748 42.0982 36.0768 42.5802C35.3928 43.0802 34.4828 43.1402 33.7368 42.7402L24.8788 38.1202C24.5708 37.9562 24.2288 37.8682 23.8788 37.8582H23.3368C23.1488 37.8862 22.9648 37.9462 22.7968 38.0382L13.9368 42.6802C13.4988 42.9002 13.0028 42.9782 12.5168 42.9002C11.3328 42.6762 10.5428 41.5482 10.7368 40.3582L12.5168 30.5182C12.6348 29.8002 12.3968 29.0702 11.8788 28.5602L4.65678 21.5602C4.05278 20.9742 3.84278 20.0942 4.11878 19.3002C4.38678 18.5082 5.07078 17.9302 5.89678 17.8002L15.8368 16.3582C16.5928 16.2802 17.2568 15.8202 17.5968 15.1402L21.9768 6.16018C22.0808 5.96018 22.2148 5.77618 22.3768 5.62018L22.5568 5.48018C22.6508 5.37618 22.7588 5.29018 22.8788 5.22018L23.0968 5.14018L23.4368 5.00018H24.2788C25.0308 5.07818 25.6928 5.52818 26.0388 6.20018L30.4768 15.1402C30.7968 15.7942 31.4188 16.2482 32.1368 16.3582L42.0768 17.8002C42.9168 17.9202 43.6188 18.5002 43.8968 19.3002C44.1588 20.1022 43.9328 20.9822 43.3168 21.5602L35.8368 28.6402Z" fill="white"/>
</g>
<defs>
<clipPath id="clip0_461_3565">
<rect width="48" height="48" fill="white"/>
</clipPath>
</defs>
</svg>
