<svg width="48" height="48" viewBox="0 0 48 48" fill="none" xmlns="http://www.w3.org/2000/svg">
<g clip-path="url(#clip0_461_3574)">
<path fill-rule="evenodd" clip-rule="evenodd" d="M28.4247 15.5248C28.4247 20.8123 24.0979 25.0496 18.6987 25.0496C13.3014 25.0496 8.97261 20.8123 8.97261 15.5248C8.97261 10.2373 13.3014 6 18.6987 6C24.0979 6 28.4247 10.2373 28.4247 15.5248ZM4 35.8347C4 30.9401 10.7711 29.7155 18.6987 29.7155C26.6693 29.7155 33.3973 30.9823 33.3973 35.8807C33.3973 40.7754 26.6263 42 18.6987 42C10.728 42 4 40.7332 4 35.8347ZM32.3468 15.6975C32.3468 18.3901 31.521 20.9026 30.0729 22.9896C29.9222 23.2043 30.0553 23.4937 30.3175 23.5397C30.6815 23.5991 31.0553 23.6355 31.4369 23.6432C35.2333 23.7409 38.6404 21.3472 39.5817 17.7424C40.977 12.3935 36.8831 7.59086 31.6678 7.59086C31.1022 7.59086 30.5601 7.64835 30.0318 7.75376C29.9594 7.76909 29.8811 7.80358 29.8419 7.86491C29.7911 7.94349 29.8282 8.04506 29.8791 8.11213C31.4466 10.2643 32.3468 12.8841 32.3468 15.6975ZM38.6345 27.4046C41.1864 27.8933 42.8635 28.8879 43.5582 30.3387C44.1473 31.5269 44.1473 32.9068 43.5582 34.095C42.4956 36.3411 39.067 37.0636 37.7343 37.2495C37.4584 37.2878 37.2373 37.0578 37.2666 36.7857C37.9476 30.561 32.5328 27.6097 31.1316 26.9312C31.0729 26.8987 31.0592 26.8527 31.065 26.822C31.069 26.8028 31.0944 26.7722 31.1394 26.7664C34.1707 26.7089 37.431 27.1171 38.6345 27.4046Z" fill="white"/>
</g>
<defs>
<clipPath id="clip0_461_3574">
<rect width="48" height="48" fill="white"/>
</clipPath>
</defs>
</svg>
