<svg width="48" height="48" viewBox="0 0 48 48" fill="none" xmlns="http://www.w3.org/2000/svg">
<g clip-path="url(#clip0_461_3583)">
<path fill-rule="evenodd" clip-rule="evenodd" d="M15.62 4H32.382C38.56 4 42 7.56 42 13.66V34.32C42 40.52 38.56 44 32.382 44H15.62C9.54 44 6 40.52 6 34.32V13.66C6 7.56 9.54 4 15.62 4ZM16.16 13.32V13.3H22.138C23 13.3 23.7 14 23.7 14.858C23.7 15.74 23 16.44 22.138 16.44H16.16C15.298 16.44 14.6 15.74 14.6 14.88C14.6 14.02 15.298 13.32 16.16 13.32ZM16.16 25.48H31.84C32.7 25.48 33.4 24.78 33.4 23.92C33.4 23.06 32.7 22.358 31.84 22.358H16.16C15.298 22.358 14.6 23.06 14.6 23.92C14.6 24.78 15.298 25.48 16.16 25.48ZM16.16 34.62H31.84C32.638 34.54 33.24 33.858 33.24 33.06C33.24 32.24 32.638 31.56 31.84 31.48H16.16C15.56 31.42 14.98 31.7 14.66 32.22C14.34 32.72 14.34 33.38 14.66 33.9C14.98 34.4 15.56 34.7 16.16 34.62Z" fill="white"/>
</g>
<defs>
<clipPath id="clip0_461_3583">
<rect width="48" height="48" fill="white"/>
</clipPath>
</defs>
</svg>
