<svg width="33" height="33" viewBox="0 0 33 33" fill="none" xmlns="http://www.w3.org/2000/svg">
<path fill-rule="evenodd" clip-rule="evenodd" d="M21.8759 3.5405C22.7172 3.5405 23.5572 3.65916 24.3559 3.92716C29.2772 5.52716 31.0505 10.9272 29.5692 15.6472C28.7292 18.0592 27.3559 20.2605 25.5572 22.0592C22.9825 24.5525 20.1572 26.7658 17.1159 28.6725L16.7825 28.8738L16.4359 28.6592C13.3839 26.7658 10.5425 24.5525 7.94387 22.0458C6.1572 20.2472 4.78253 18.0592 3.9292 15.6472C2.42254 10.9272 4.19587 5.52716 9.17054 3.89916C9.5572 3.76583 9.95587 3.6725 10.3559 3.6205H10.5159C10.8905 3.56583 11.2625 3.5405 11.6359 3.5405H11.7825C12.6225 3.56583 13.4359 3.7125 14.2239 3.9805H14.3025C14.3559 4.00583 14.3959 4.03383 14.4225 4.05916C14.7172 4.15383 14.9959 4.2605 15.2625 4.40716L15.7692 4.63383C15.8916 4.69913 16.0291 4.7989 16.1478 4.88512C16.2231 4.93976 16.2908 4.98895 16.3425 5.0205C16.3643 5.03333 16.3864 5.04624 16.4087 5.05926C16.523 5.12599 16.6421 5.19551 16.7425 5.2725C18.2239 4.1405 20.0225 3.52716 21.8759 3.5405ZM25.4225 13.1405C25.9692 13.1258 26.4359 12.6872 26.4759 12.1258V11.9672C26.5159 10.0992 25.3839 8.40716 23.6625 7.75383C23.1159 7.56583 22.5159 7.8605 22.3159 8.4205C22.1292 8.9805 22.4225 9.59383 22.9825 9.7925C23.8372 10.1125 24.4092 10.9538 24.4092 11.8858V11.9272C24.3839 12.2325 24.4759 12.5272 24.6625 12.7538C24.8492 12.9805 25.1292 13.1125 25.4225 13.1405Z" fill="white"/>
</svg>
