<svg width="33" height="32" viewBox="0 0 33 32" fill="none" xmlns="http://www.w3.org/2000/svg">
<path fill-rule="evenodd" clip-rule="evenodd" d="M13.0019 26.7039L24.717 11.5539C25.3537 10.7369 25.5801 9.7924 25.3679 8.83065C25.184 7.95634 24.6463 7.12503 23.8398 6.49438L21.8731 4.93208C20.1611 3.57045 18.0388 3.71378 16.822 5.27608L15.5062 6.98313C15.3364 7.19669 15.3789 7.51202 15.5911 7.68402C15.5911 7.68402 18.916 10.3499 18.9868 10.4073C19.2132 10.6223 19.383 10.9089 19.4254 11.2529C19.4961 11.9266 19.0292 12.5572 18.3359 12.6432C18.0105 12.6862 17.6993 12.5859 17.4729 12.3996L13.9781 9.61897C13.8083 9.4914 13.5537 9.51864 13.4122 9.69063L5.10685 20.4404C4.5692 21.114 4.38526 21.9883 4.5692 22.834L5.63036 27.4349C5.68695 27.6785 5.89918 27.8505 6.15386 27.8505L10.823 27.7932C11.6719 27.7788 12.4642 27.3919 13.0019 26.7039ZM19.5396 25.271H27.153C27.8958 25.271 28.5 25.883 28.5 26.6355C28.5 27.3894 27.8958 28 27.153 28H19.5396C18.7968 28 18.1926 27.3894 18.1926 26.6355C18.1926 25.883 18.7968 25.271 19.5396 25.271Z" fill="white"/>
</svg>
