<svg width="32" height="32" viewBox="0 0 32 32" fill="none" xmlns="http://www.w3.org/2000/svg">
<path fill-rule="evenodd" clip-rule="evenodd" d="M27.0495 6.99058C27.5682 6.99058 28 7.42124 28 7.96924V8.4759C28 9.01056 27.5682 9.45456 27.0495 9.45456H4.9518C4.43181 9.45456 4 9.01056 4 8.4759V7.96924C4 7.42124 4.43181 6.99058 4.9518 6.99058H8.83942C9.62913 6.99058 10.3164 6.42925 10.4941 5.63726L10.6976 4.72794C11.014 3.48928 12.0553 2.66663 13.247 2.66663H18.753C19.9317 2.66663 20.9847 3.48928 21.2894 4.66261L21.5072 5.63593C21.6836 6.42926 22.3709 6.99058 23.1619 6.99058H27.0495ZM25.0743 25.512C25.4802 21.7294 26.1908 12.7428 26.1908 12.6522C26.2167 12.3775 26.1272 12.1175 25.9496 11.9082C25.759 11.7122 25.5178 11.5962 25.252 11.5962H6.75789C6.49077 11.5962 6.23661 11.7122 6.06025 11.9082C5.8813 12.1175 5.79312 12.3775 5.80609 12.6522C5.80847 12.6688 5.83397 12.9854 5.8766 13.5146C6.06598 15.8656 6.59342 22.4136 6.93425 25.512C7.17544 27.7947 8.67317 29.2293 10.8426 29.2813C12.5167 29.32 14.2414 29.3333 16.0049 29.3333C17.666 29.3333 19.3531 29.32 21.0791 29.2813C23.3237 29.2427 24.8201 27.8334 25.0743 25.512Z" fill="#E22121"/>
</svg>
