<svg width="26" height="26" viewBox="0 0 26 26" fill="none" xmlns="http://www.w3.org/2000/svg">
<path fill-rule="evenodd" clip-rule="evenodd" d="M17.1707 2.70916C17.8543 2.70916 18.5368 2.80557 19.1857 3.02332C23.1843 4.32332 24.6251 8.71082 23.4215 12.5458C22.739 14.5056 21.6232 16.2942 20.1618 17.7556C18.0699 19.7814 15.7743 21.5797 13.3032 23.1289L13.0324 23.2925L12.7507 23.1181C10.2709 21.5797 7.96236 19.7814 5.85094 17.7447C4.39927 16.2833 3.28236 14.5056 2.58902 12.5458C1.36486 8.71082 2.80569 4.32332 6.84761 3.00057C7.16177 2.89224 7.48569 2.81641 7.81069 2.77416H7.94069C8.24511 2.72974 8.54736 2.70916 8.85069 2.70916H8.96986C9.65236 2.72974 10.3132 2.84891 10.9534 3.06666H11.0174C11.0607 3.08724 11.0932 3.10999 11.1149 3.13057C11.3543 3.20749 11.5807 3.29416 11.7974 3.41332L12.209 3.59749C12.3085 3.65054 12.4201 3.73161 12.5166 3.80167C12.5778 3.84606 12.6328 3.88603 12.6749 3.91166C12.6925 3.92209 12.7105 3.93258 12.7286 3.94315C12.8215 3.99737 12.9183 4.05386 12.9999 4.11641C14.2034 3.19666 15.6649 2.69832 17.1707 2.70916ZM20.0523 10.509C20.4965 10.4971 20.8757 10.1406 20.9082 9.68456V9.55565C20.9407 8.0379 20.0209 6.66315 18.6223 6.13231C18.1782 5.97956 17.6907 6.21898 17.5282 6.67398C17.3765 7.12898 17.6148 7.62731 18.0698 7.78873C18.7642 8.04873 19.229 8.73231 19.229 9.48956V9.52315C19.2084 9.77123 19.2832 10.0106 19.4348 10.1948C19.5865 10.379 19.814 10.4862 20.0523 10.509Z" fill="#FF2264"/>
</svg>
