<svg width="24" height="24" viewBox="0 0 24 24" fill="none" xmlns="http://www.w3.org/2000/svg">
<path d="M14.5301 9.47002L9.47008 14.53C8.79908 13.859 8.42212 12.949 8.42212 12C8.42212 11.5302 8.51467 11.0649 8.69448 10.6308C8.87428 10.1967 9.13784 9.80226 9.47008 9.47002C9.80232 9.13777 10.1968 8.87422 10.6309 8.69441C11.065 8.5146 11.5302 8.42206 12.0001 8.42206C12.949 8.42206 13.8591 8.79902 14.5301 9.47002Z" stroke="white" stroke-width="1.5" stroke-linecap="round" stroke-linejoin="round"/>
<path d="M9.18183 14.2761L14.0568 9.03762C14.7515 9.68409 15.1609 10.58 15.195 11.5284C15.2119 11.9979 15.1361 12.4662 14.972 12.9065C14.8079 13.3468 14.5587 13.7504 14.2386 14.0944C13.9185 14.4383 13.5338 14.7159 13.1064 14.9112C12.679 15.1064 12.2174 15.2156 11.7478 15.2325C10.7995 15.2666 9.87649 14.9226 9.18183 14.2761Z" stroke="white" stroke-width="1.5" stroke-linecap="round" stroke-linejoin="round"/>
<path d="M14.5301 9.47002L9.47008 14.53C8.79908 13.859 8.42212 12.949 8.42212 12C8.42212 11.5302 8.51467 11.0649 8.69448 10.6308C8.87428 10.1967 9.13784 9.80226 9.47008 9.47002C9.80232 9.13777 10.1968 8.87422 10.6309 8.69441C11.065 8.5146 11.5302 8.42206 12.0001 8.42206C12.949 8.42206 13.8591 8.79902 14.5301 9.47002Z" stroke="white" stroke-width="1.5" stroke-linecap="round" stroke-linejoin="round"/>
<path d="M5.385 17.54C4.385 16.68 3.465 15.61 2.675 14.37C1.775 12.96 1.775 10.59 2.675 9.18C4.965 5.58 8.255 3.5 11.785 3.5C13.855 3.5 15.855 4.22 17.605 5.54C17.975 6 19.67 7.48 20 8C20.9 9.41 23 11.5 20.895 14.36C18.605 17.96 15.315 20.04 11.785 20.04C10.555 20.04 8 19 5.33113 17.4934" stroke="white" stroke-width="1.5" stroke-linecap="round" stroke-linejoin="round"/>
</svg>
