<svg width="578" height="612" viewBox="0 0 578 612" fill="none" xmlns="http://www.w3.org/2000/svg">
<path opacity="0.5" fill-rule="evenodd" clip-rule="evenodd" d="M276.505 1.07418C327.396 10.2131 345.749 74.437 384.691 108.421C414.844 134.735 450.972 150.576 479.718 178.416C516.984 214.508 577.465 243.784 577.997 295.635C578.528 347.331 509.784 370.548 482.139 414.25C455.975 455.613 455.786 510.842 420.44 544.712C381.621 581.909 330.158 607.485 276.505 611.294C221.475 615.202 160.937 603.255 120.253 566.027C80.6278 529.768 85.6604 467.207 64.9212 417.683C47.2274 375.43 14.7053 340.788 7.02212 295.635C-1.45869 245.794 -6.85893 190.557 18.8661 147.022C44.5551 103.547 99.3084 89.9665 143.265 65.0658C186.876 40.3614 227.164 -7.78665 276.505 1.07418Z" fill="#173CEA"/>
</svg>
